<svg width="1102" height="319" viewBox="0 0 1102 319" fill="none" xmlns="http://www.w3.org/2000/svg">
<path d="M69.0524 117.556L68.7236 186.611L69.0524 255.665H125.281C171.973 255.665 177.235 248.76 177.235 186.611C177.235 124.462 171.973 117.556 125.281 117.556H69.0524ZM0 314.855V58.3667H132.515C226.229 58.3667 249.575 84.0155 249.575 186.611C249.575 289.206 226.229 314.855 132.515 314.855H0Z" fill="#191919"/>
<path d="M277.481 117.556H339.957V314.855H277.481V117.556ZM275.837 97.8264V51.79H341.601V97.8264H275.837Z" fill="#191919"/>
<path d="M374.419 51.79H436.895V148.795C443.143 124.462 462.214 113.61 496.412 113.61C547.708 113.61 561.19 128.408 561.19 187.269L561.518 314.855H499.042V202.066C499.042 169.84 496.412 166.223 471.75 166.223C447.418 166.223 436.895 178.061 436.895 205.354V314.855H374.419V51.79Z" fill="#191919"/>
<path d="M686.858 113.61C759.857 113.61 778.271 127.421 778.271 182.007V314.855H715.795V287.891C709.218 308.936 692.12 318.472 660.882 318.801C599.721 320.774 584.595 308.607 584.595 257.967C584.595 209.958 599.721 197.791 659.895 197.791L715.795 197.462V186.282C715.795 162.277 712.835 159.647 686.201 159.647C656.278 159.647 652.99 162.277 653.647 185.296H591.171V178.39C591.171 126.435 610.243 113.61 686.858 113.61ZM650.359 258.625C650.359 273.094 653.976 274.738 686.201 274.08C706.916 273.751 715.795 267.175 715.795 252.048V243.499L686.201 243.828C653.976 243.828 650.359 245.143 650.359 258.625Z" fill="#191919"/>
<path d="M1003.24 51.79V314.855H942.411V273.751C936.822 304.99 916.763 318.801 878.291 318.801C816.802 318.801 801.347 298.414 801.347 216.206C801.347 133.998 816.144 113.61 875.003 113.61C912.489 113.61 933.533 122.818 940.767 144.192V51.79H1003.24ZM867.111 216.206C867.111 261.256 870.728 266.188 904.597 266.188C927.286 266.188 940.767 259.94 940.767 245.143V203.71C940.767 177.404 928.93 166.223 900.98 166.223C870.4 166.223 867.111 171.156 867.111 216.206Z" fill="#191919"/>
<path d="M1037.88 117.556H1100.36V314.855H1037.88V117.556ZM1036.24 97.8264V51.79H1102V97.8264H1036.24Z" fill="#191919"/>
<path d="M851.402 185.131L851.13 186.865C849.273 191.917 847.676 197.243 846.34 202.841L793.768 194.624C793.026 186.646 791.387 179.328 788.854 172.668L851.402 185.131Z" fill="#F68213"/>
<path d="M681.902 168.974C694.383 168.974 704 171.951 710.756 177.905C712.3 179.243 713.669 180.707 714.866 182.293L657.918 173.393C664.555 170.447 672.55 168.974 681.902 168.974Z" fill="#F68213"/>
<path d="M691.274 0.0604672C699.307 -0.182497 707.468 0.302729 715.697 1.58864C723.921 2.87392 731.841 4.90185 739.417 7.58421L728.481 77.5642L736.501 78.8179L753.558 22.2733C796.096 44.0197 823.978 88.096 824.333 136.886L833.287 143.268L828.586 173.349L786.278 166.736C785.907 165.984 785.524 165.241 785.128 164.508C779.059 153.171 770.757 143.896 760.223 136.682C749.803 129.469 737.837 124.143 724.326 120.708C710.929 117.272 696.901 115.555 682.245 115.555C661.176 115.555 642.627 118.762 626.596 125.174C617.828 128.643 609.947 132.948 602.952 138.085L555.783 130.715L560.484 100.635L570.958 97.2884C586.181 50.9331 626.181 17.4653 673.326 9.73453L672.318 68.7878L680.338 70.0416L691.274 0.0604672Z" fill="#F68213"/>
<path d="M597.299 142.585C593.815 145.588 590.583 148.829 587.608 152.312C585.127 155.188 582.846 158.197 580.768 161.337L527.638 153.033L530.461 134.975L597.299 142.585Z" fill="#F68213"/>
</svg>
